<svg version="1.1" id="Layer_1" xmlns="http://www.w3.org/2000/svg" xmlns:xlink="http://www.w3.org/1999/xlink" x="0px" y="0px"
	 width="100%" viewBox="0 0 500 500" enable-background="new 0 0 500 500" xml:space="preserve">
<path fill="#07071D" opacity="1.000000" stroke="none" 
	d="
M431.000000,1.000000 
	C454.317383,1.000000 477.634735,1.000000 500.948608,1.000003 
	C500.945099,167.666672 500.945099,334.333344 500.945099,501.000000 
	C477.905914,501.000000 454.921600,501.000000 431.468658,500.531342 
	C431.000000,333.708466 431.000000,167.354233 431.000000,1.000000 
z"/>
<path fill="#0D3940" opacity="1.000000" stroke="none" 
	d="
M63.000000,501.000000 
	C42.347832,501.000000 21.695662,501.000000 1.000000,501.000000 
	C1.000000,334.631287 0.999951,168.262589 1.003950,1.893885 
	C1.003957,1.595586 1.063995,1.297288 1.100703,0.999495 
	C21.424503,1.000000 41.743591,1.000000 62.531342,1.468657 
	C63.000000,168.291550 63.000000,334.645782 63.000000,501.000000 
z"/>
<path fill="#0D323B" opacity="1.000000" stroke="none" 
	d="
M63.468658,501.000000 
	C63.000000,334.645782 63.000000,168.291550 63.000000,1.468657 
	C81.020897,1.000000 99.041786,1.000000 117.531342,1.468657 
	C118.000000,168.291550 118.000000,334.645782 118.000000,501.000000 
	C99.979103,501.000000 81.958214,501.000000 63.468658,501.000000 
z"/>
<path fill="#080F22" opacity="1.000000" stroke="none" 
	d="
M430.531342,1.000000 
	C431.000000,167.354233 431.000000,333.708466 431.000000,500.531342 
	C413.645782,501.000000 396.291534,501.000000 378.468658,500.531342 
	C378.001007,443.432709 378.002014,386.802734 378.438904,330.098328 
	C379.570496,329.237091 380.852295,328.463379 380.870178,327.661407 
	C381.028229,320.592102 381.067108,313.514221 380.830444,306.449310 
	C380.800140,305.545135 378.989197,304.700623 378.002136,303.370605 
	C378.000763,202.275131 378.000397,101.637566 378.000000,1.000000 
	C395.354218,1.000000 412.708466,1.000000 430.531342,1.000000 
z"/>
<path fill="#0C2C37" opacity="1.000000" stroke="none" 
	d="
M118.468658,501.000000 
	C118.000000,334.645782 118.000000,168.291550 118.000000,1.468657 
	C135.354233,1.000000 152.708450,1.000000 170.531342,1.468657 
	C171.000000,70.190384 170.986588,138.443466 171.051590,206.696472 
	C171.054062,209.288101 171.815018,211.878998 172.128571,214.784851 
	C166.276505,224.510941 160.518417,233.922424 154.760315,243.333908 
	C155.154587,243.590164 155.548859,243.846420 155.943130,244.102676 
	C163.858871,234.283707 171.774612,224.464737 179.690353,214.645752 
	C180.406174,215.080032 181.121994,215.514297 181.837814,215.948563 
	C180.569962,218.650162 179.893051,221.917007 177.937820,223.961105 
	C165.754211,236.698395 157.192093,251.597992 151.589005,268.128052 
	C149.493347,274.310577 148.586075,281.020172 148.044785,287.564545 
	C147.638763,292.473602 150.453186,296.215698 155.657654,297.141541 
	C159.394043,297.806183 163.218842,297.973877 167.005524,298.758331 
	C167.006027,300.736938 167.005188,302.320526 166.536850,303.944153 
	C159.861923,303.987518 153.651184,303.885803 147.449814,304.081024 
	C146.182816,304.120911 144.950897,305.275391 143.386749,305.587524 
	C141.637756,299.638062 140.204834,294.017181 138.735275,288.252533 
	C138.233063,292.145844 137.464035,296.162842 137.239166,300.210052 
	C136.521103,313.134888 138.323120,314.997192 151.039795,315.500610 
	C151.120865,320.544006 151.120865,325.129333 151.120865,329.798279 
	C154.376831,329.798279 156.964844,329.798279 160.009995,329.798279 
	C160.009995,325.330750 160.026352,321.059143 160.004288,316.787781 
	C159.989288,313.885101 161.019409,312.129700 164.298126,312.299500 
	C165.723755,312.373322 167.171463,312.020935 168.874908,311.896820 
	C169.318100,311.952667 169.495529,311.973846 169.775726,312.452728 
	C169.825165,318.276428 169.771835,323.642487 169.359390,329.151245 
	C168.666855,331.176300 168.043854,333.058380 168.042084,334.941040 
	C167.990143,390.294006 168.000000,445.647003 168.000000,501.000000 
	C151.645767,501.000000 135.291550,501.000000 118.468658,501.000000 
z"/>
<path fill="#091426" opacity="1.000000" stroke="none" 
	d="
M377.531342,1.000000 
	C378.000397,101.637566 378.000763,202.275131 377.563599,303.447937 
	C376.410889,304.924469 375.138885,305.831604 375.078705,306.813049 
	C374.840149,310.702942 374.980652,314.616089 374.980652,318.693420 
	C368.023529,314.669952 366.987701,304.346985 357.350464,303.742432 
	C357.350464,312.806610 357.350464,321.349640 357.350464,330.068481 
	C359.414307,329.963165 361.147675,329.874725 363.337921,329.762939 
	C363.337921,324.674255 363.337921,320.023590 363.337921,314.652069 
	C366.743744,318.799286 369.466705,322.370087 372.478394,325.678040 
	C374.058868,327.414001 376.145172,328.689392 378.003052,330.172760 
	C378.002014,386.802734 378.001007,443.432709 378.000000,500.531342 
	C363.979095,501.000000 349.958221,501.000000 335.468658,500.531342 
	C335.000641,443.434845 335.001312,386.807037 335.465149,330.107086 
	C341.208984,330.034973 346.489655,330.034973 351.882629,330.034973 
	C351.882629,328.240601 351.882629,326.855255 351.882629,325.051758 
	C347.235687,325.051758 342.819183,325.051758 338.320862,325.051758 
	C338.320862,322.909088 338.320862,321.190552 338.320862,319.061096 
	C342.327972,319.061096 346.077881,319.061096 350.202759,319.061096 
	C349.984863,317.260864 349.822205,315.917297 349.623627,314.276855 
	C345.618988,314.276855 342.027954,314.276855 338.320709,314.276855 
	C338.320709,312.363190 338.320709,310.806641 338.320709,308.866028 
	C342.829010,308.866028 347.085602,308.866028 351.572754,308.866028 
	C351.572754,307.108185 351.572754,305.737213 351.572754,303.822144 
	C345.893433,303.822144 340.447723,303.822144 335.001434,303.365173 
	C334.998138,297.524048 334.995453,292.139862 335.285767,286.535217 
	C337.977997,285.603394 340.377258,284.892059 342.776489,284.180725 
	C342.692871,283.742371 342.609253,283.304016 342.525665,282.865662 
	C313.028442,282.865662 283.531250,282.865662 254.036346,282.611511 
	C254.049942,282.020996 254.061218,281.684570 254.532288,281.282593 
	C283.818817,281.205444 312.645782,281.240753 341.471802,281.089539 
	C343.680328,281.077972 347.316803,280.237000 347.764923,278.921509 
	C348.517670,276.711731 347.923065,273.420654 346.695282,271.269409 
	C342.083344,263.188538 336.986664,255.384323 332.070801,247.476959 
	C329.873749,243.942932 326.865112,240.687485 330.267120,236.059998 
	C331.185211,234.811157 330.791687,232.509705 330.795654,230.690979 
	C330.829132,215.361206 330.769653,200.031052 330.868469,184.701828 
	C330.881989,182.610367 331.234497,180.355621 332.072906,178.460983 
	C339.193787,162.369644 343.198334,145.863815 338.822540,126.779182 
	C347.237793,133.463104 350.186310,141.490707 351.536621,150.253967 
	C352.888550,159.027832 351.481873,167.581192 348.695221,176.127655 
	C349.890076,175.495148 350.831573,174.713547 351.427612,173.723862 
	C358.082825,162.673264 363.069366,150.926270 364.749268,138.077026 
	C366.474854,124.878143 360.352692,111.125648 346.000916,108.329971 
	C346.000488,72.249855 346.000244,36.624928 346.000000,1.000000 
	C356.354218,1.000000 366.708466,1.000000 377.531342,1.000000 
z"/>
<path fill="#0B2733" opacity="1.000000" stroke="none" 
	d="
M167.004364,303.904083 
	C167.005188,302.320526 167.006027,300.736938 167.451508,298.649567 
	C181.576324,297.567566 194.489822,294.007019 206.966492,288.468781 
	C209.377396,287.398651 212.309433,287.502563 215.000671,287.529480 
	C214.941116,293.497345 214.881927,299.000549 214.435059,304.399597 
	C212.411087,304.000305 210.785095,303.541138 209.136765,303.437592 
	C200.539566,302.897614 193.940628,308.780060 193.904282,316.921570 
	C193.867752,325.106964 200.349594,331.055634 208.953094,330.588593 
	C210.929092,330.481323 212.879776,329.907837 214.882782,330.044312 
	C214.948959,387.359833 214.974472,444.179901 215.000000,501.000000 
	C199.645767,501.000000 184.291550,501.000000 168.468658,501.000000 
	C168.000000,445.647003 167.990143,390.294006 168.042084,334.941040 
	C168.043854,333.058380 168.666855,331.176300 169.619659,329.518372 
	C177.169815,329.742828 184.100571,329.742828 191.176575,329.742828 
	C191.176575,327.607086 191.176575,325.701172 191.176575,324.070801 
	C187.155029,321.585327 181.741409,325.726562 177.449814,320.062866 
	C182.183319,320.062866 185.603180,320.062866 189.053558,320.062866 
	C189.053558,317.673615 189.053558,315.813904 189.053558,314.189026 
	C185.262619,313.725769 181.914200,313.316559 178.565781,312.907379 
	C178.642181,312.180908 178.718597,311.454468 178.794998,310.727997 
	C182.800705,310.727997 186.806396,310.727997 190.673706,310.727997 
	C190.673706,308.022369 190.673706,306.122467 190.673706,303.989410 
	C184.366592,303.989410 178.388885,303.904724 172.418747,304.078827 
	C171.501373,304.105560 170.618744,305.323975 169.429413,305.991638 
	C168.751282,305.994873 168.363785,305.997681 167.869537,305.722473 
	C167.509979,304.930969 167.257172,304.417511 167.004364,303.904083 
z"/>
<path fill="#0B2633" opacity="1.000000" stroke="none" 
	d="
M172.222519,214.470245 
	C171.815018,211.878998 171.054062,209.288101 171.051590,206.696472 
	C170.986588,138.443466 171.000000,70.190384 171.000000,1.468657 
	C186.020889,1.000000 201.041794,1.000000 216.531342,1.468657 
	C216.999207,49.009190 216.998413,96.081062 216.546692,143.291458 
	C207.615158,143.457092 199.128860,143.304047 190.655762,143.570496 
	C184.301956,143.770309 181.057281,147.258514 181.035065,153.334351 
	C180.988266,166.139221 180.361496,178.989441 181.234756,191.734573 
	C181.883041,201.196335 178.660614,208.253952 172.222519,214.470245 
z"/>
<path fill="#0A1C2C" opacity="1.000000" stroke="none" 
	d="
M303.000000,501.000000 
	C292.312439,501.000000 281.624878,501.000000 270.468658,500.531342 
	C269.980316,443.325989 269.960632,386.589294 269.949463,329.393433 
	C269.952179,320.673035 269.946350,312.411774 269.956940,303.673889 
	C269.982422,297.819702 269.991516,292.442200 270.460693,286.969299 
	C281.614136,286.937347 292.307526,287.000732 303.000488,287.527344 
	C303.000519,293.267365 303.000916,298.544159 302.608246,303.953186 
	C303.352692,307.646667 304.490173,311.207886 305.239868,314.951233 
	C304.234680,317.239838 303.680084,319.367462 302.981354,321.446594 
	C302.343689,323.344055 301.549835,325.189026 300.547699,326.839844 
	C297.633514,320.724884 294.705078,314.935486 292.459961,308.892242 
	C290.917206,304.739685 288.699005,302.993683 284.093933,304.339996 
	C280.420624,312.585266 276.660706,321.024994 272.864685,329.545715 
	C278.020538,330.242493 278.020538,330.242493 280.299866,326.396332 
	C281.808136,323.851257 292.872253,323.207245 293.564270,325.889618 
	C294.768311,330.556641 297.891724,330.063538 301.541199,330.161194 
	C302.276489,332.307739 302.952087,334.339722 302.954224,336.372467 
	C303.011627,391.248260 303.000000,446.124146 303.000000,501.000000 
z"/>
<path fill="#091829" opacity="1.000000" stroke="none" 
	d="
M303.001282,303.820984 
	C303.000916,298.544159 303.000519,293.267365 303.460632,287.432068 
	C314.278320,286.834320 324.635559,286.795013 334.992767,286.755707 
	C334.995453,292.139862 334.998138,297.524048 334.564941,303.440918 
	C333.427673,304.758423 332.135529,305.529907 332.117462,306.330139 
	C331.957764,313.408630 331.918335,320.495697 332.155426,327.569794 
	C332.185577,328.470367 334.009216,329.310883 335.001984,330.179199 
	C335.001312,386.807037 335.000641,443.434845 335.000000,500.531342 
	C324.645782,501.000000 314.291534,501.000000 303.468658,501.000000 
	C303.000000,446.124146 303.011627,391.248260 302.954224,336.372467 
	C302.952087,334.339722 302.276489,332.307739 301.658386,329.790497 
	C301.209625,328.556122 301.017242,327.806610 300.824860,327.057129 
	C301.549835,325.189026 302.343689,323.344055 302.981354,321.446594 
	C303.680084,319.367462 304.234680,317.239838 305.423218,315.242126 
	C307.722717,319.536987 309.308838,323.789703 311.226837,327.887024 
	C312.624969,330.873749 317.731384,331.069794 319.044556,328.181580 
	C322.594635,320.373383 325.910889,312.458862 329.348206,304.521149 
	C325.173279,303.025757 323.044159,304.262360 321.682770,308.192657 
	C320.069946,312.848724 317.777588,317.269409 315.529816,322.358002 
	C313.401581,317.357910 311.262970,313.049530 309.743500,308.532867 
	C308.565765,305.031952 306.659058,303.380768 303.001282,303.820984 
z"/>
<path fill="#0B2230" opacity="1.000000" stroke="none" 
	d="
M216.997620,143.152939 
	C216.998413,96.081062 216.999207,49.009190 217.000000,1.468657 
	C231.020889,1.000000 245.041794,1.000000 259.594238,1.413485 
	C260.417175,4.285893 260.959930,6.744535 260.962677,9.203782 
	C261.012787,53.854408 260.997955,98.505112 260.546295,143.295227 
	C245.729660,143.340744 231.363632,143.246841 216.997620,143.152939 
z"/>
<path fill="#0A2230" opacity="1.000000" stroke="none" 
	d="
M214.822739,304.503784 
	C214.881927,299.000549 214.941116,293.497345 215.460968,287.435242 
	C224.614670,286.939545 233.307709,287.002716 242.000488,287.528900 
	C242.000839,293.269318 242.001419,298.546661 241.580139,303.899658 
	C240.121750,306.860260 239.085220,309.745209 237.998291,312.770447 
	C236.127258,312.770447 233.742538,312.770447 230.912384,312.770447 
	C230.912384,309.691925 230.912384,306.958893 230.912384,304.253601 
	C227.861084,304.253601 225.280457,304.253601 222.546585,304.253601 
	C222.546585,312.906860 222.546585,321.289948 222.546585,329.792664 
	C225.432510,329.792664 228.017334,329.792664 231.051544,329.792664 
	C231.051544,326.851654 231.051544,324.111115 231.051544,321.252380 
	C233.914383,321.252380 236.321884,321.252380 239.122314,321.252380 
	C239.122314,323.440002 238.786331,325.479645 239.247681,327.319336 
	C239.526779,328.432251 241.042038,329.235199 242.001328,330.634949 
	C242.000504,387.728302 242.000244,444.364166 242.000000,501.000000 
	C233.312439,501.000000 224.624863,501.000000 215.468643,501.000000 
	C214.974472,444.179901 214.948959,387.359833 215.143311,329.826233 
	C216.842026,327.982666 218.320877,326.852570 219.970520,325.591980 
	C218.050018,323.733063 216.529114,322.260925 215.008087,320.369263 
	C215.008499,317.712158 215.009033,315.474518 215.253494,312.972351 
	C216.908661,311.365906 218.319916,310.023987 220.067596,308.362152 
	C218.175140,306.969971 216.498947,305.736877 214.822739,304.503784 
z"/>
<path fill="#0A1D2C" opacity="1.000000" stroke="none" 
	d="
M260.996918,143.155792 
	C260.997955,98.505112 261.012787,53.854408 260.962677,9.203782 
	C260.959930,6.744535 260.417175,4.285893 260.062897,1.413485 
	C272.020905,1.000000 284.041779,1.000000 296.531342,1.468657 
	C297.000000,41.056030 296.968140,80.174858 297.095032,119.293152 
	C297.101318,121.228447 298.490631,123.159256 299.072876,125.393707 
	C295.272827,128.900330 291.635803,132.105408 287.998779,135.310486 
	C289.794891,135.743958 290.935608,135.218796 292.109772,134.783936 
	C297.687653,132.718079 303.146484,130.162888 308.884674,128.732437 
	C321.315491,125.633606 328.809082,132.408401 327.356720,145.795349 
	C325.561249,144.241013 324.338684,142.218155 322.751678,140.539948 
	C320.557709,138.219864 318.438934,135.345642 315.666718,134.154129 
	C309.559601,131.529266 304.080933,134.627029 299.241394,137.145782 
	C301.535278,138.760818 303.925476,140.443680 306.315674,142.126526 
	C306.120087,142.469620 305.924500,142.812698 305.728912,143.155792 
	C290.818237,143.155792 275.907593,143.155792 260.996918,143.155792 
z"/>
<path fill="#0A1F2E" opacity="1.000000" stroke="none" 
	d="
M242.468658,501.000000 
	C242.000244,444.364166 242.000504,387.728302 242.401611,330.565308 
	C243.881210,329.975677 244.959976,329.913239 246.482025,329.921356 
	C248.524933,329.991943 250.124573,329.991943 252.228027,329.991943 
	C252.228027,326.216309 252.228027,322.842957 252.228027,319.475647 
	C256.344147,319.475647 259.946838,319.475647 264.020508,319.475647 
	C264.020508,323.083405 264.020508,326.493622 264.020508,329.852600 
	C266.309601,329.852600 268.125275,329.852600 269.940948,329.852600 
	C269.960632,386.589294 269.980316,443.325989 270.000000,500.531342 
	C260.979095,501.000000 251.958206,501.000000 242.468658,501.000000 
z"/>
<path fill="#091929" opacity="1.000000" stroke="none" 
	d="
M299.235931,125.092163 
	C298.490631,123.159256 297.101318,121.228447 297.095032,119.293152 
	C296.968140,80.174858 297.000000,41.056030 297.000000,1.468657 
	C306.354218,1.000000 315.708466,1.000000 325.531342,1.468657 
	C326.000000,10.744576 325.983795,19.551872 326.003021,28.359091 
	C326.063568,56.107746 326.137451,83.856369 325.893738,111.771278 
	C316.249512,115.220947 306.935974,118.540825 299.235931,125.092163 
z"/>
<path fill="#091627" opacity="1.000000" stroke="none" 
	d="
M326.206177,111.605011 
	C326.137451,83.856369 326.063568,56.107746 326.003021,28.359091 
	C325.983795,19.551872 326.000000,10.744576 326.000000,1.468657 
	C332.354401,1.000000 338.708801,1.000000 345.531616,1.000000 
	C346.000244,36.624928 346.000488,72.249855 345.543915,108.389343 
	C338.793457,109.804268 332.499817,110.704643 326.206177,111.605011 
z"/>
<path fill="#FAFAFA" opacity="1.000000" stroke="none" 
	d="
M378.438904,330.098328 
	C376.145172,328.689392 374.058868,327.414001 372.478394,325.678040 
	C369.466705,322.370087 366.743744,318.799286 363.337921,314.652069 
	C363.337921,320.023590 363.337921,324.674255 363.337921,329.762939 
	C361.147675,329.874725 359.414307,329.963165 357.350464,330.068481 
	C357.350464,321.349640 357.350464,312.806610 357.350464,303.742432 
	C366.987701,304.346985 368.023529,314.669952 374.980652,318.693420 
	C374.980652,314.616089 374.840149,310.702942 375.078705,306.813049 
	C375.138885,305.831604 376.410889,304.924469 377.564575,303.905853 
	C378.989197,304.700623 380.800140,305.545135 380.830444,306.449310 
	C381.067108,313.514221 381.028229,320.592102 380.870178,327.661407 
	C380.852295,328.463379 379.570496,329.237091 378.438904,330.098328 
z"/>
<path fill="#FAFBFB" opacity="1.000000" stroke="none" 
	d="
M325.893707,111.771278 
	C332.499817,110.704643 338.793457,109.804268 345.544128,108.844528 
	C360.352692,111.125648 366.474854,124.878143 364.749268,138.077026 
	C363.069366,150.926270 358.082825,162.673264 351.427612,173.723862 
	C350.831573,174.713547 349.890076,175.495148 348.695221,176.127655 
	C351.481873,167.581192 352.888550,159.027832 351.536621,150.253967 
	C350.186310,141.490707 347.237793,133.463104 338.822540,126.779182 
	C343.198334,145.863815 339.193787,162.369644 332.072906,178.460983 
	C331.234497,180.355621 330.881989,182.610367 330.868469,184.701828 
	C330.769653,200.031052 330.829132,215.361206 330.795654,230.690979 
	C330.791687,232.509705 331.185211,234.811157 330.267120,236.059998 
	C326.865112,240.687485 329.873749,243.942932 332.070801,247.476959 
	C336.986664,255.384323 342.083344,263.188538 346.695282,271.269409 
	C347.923065,273.420654 348.517670,276.711731 347.764923,278.921509 
	C347.316803,280.237000 343.680328,281.077972 341.471802,281.089539 
	C312.645782,281.240753 283.818817,281.205444 254.071289,281.167603 
	C241.734604,281.407898 230.258987,280.339081 218.927628,282.865662 
	C230.629761,282.865662 242.331894,282.865662 254.034027,282.865662 
	C283.531250,282.865662 313.028442,282.865662 342.525665,282.865662 
	C342.609253,283.304016 342.692871,283.742371 342.776489,284.180725 
	C340.377258,284.892059 337.977997,285.603394 335.285767,286.535217 
	C324.635559,286.795013 314.278320,286.834320 303.460999,286.968872 
	C292.307526,287.000732 281.614136,286.937347 270.000916,286.871643 
	C260.054291,286.934875 251.027512,287.000366 242.000732,287.065857 
	C233.307709,287.002716 224.614670,286.939545 215.461365,286.970642 
	C212.309433,287.502563 209.377396,287.398651 206.966492,288.468781 
	C194.489822,294.007019 181.576324,297.567566 167.450195,298.254517 
	C163.218842,297.973877 159.394043,297.806183 155.657654,297.141541 
	C150.453186,296.215698 147.638763,292.473602 148.044785,287.564545 
	C148.586075,281.020172 149.493347,274.310577 151.589005,268.128052 
	C157.192093,251.597992 165.754211,236.698395 177.937820,223.961105 
	C179.893051,221.917007 180.569962,218.650162 181.837814,215.948563 
	C181.121994,215.514297 180.406174,215.080032 179.690353,214.645752 
	C171.774612,224.464737 163.858871,234.283707 155.943130,244.102676 
	C155.548859,243.846420 155.154587,243.590164 154.760315,243.333908 
	C160.518417,233.922424 166.276505,224.510941 172.128571,214.784851 
	C178.660614,208.253952 181.883041,201.196335 181.234756,191.734573 
	C180.361496,178.989441 180.988266,166.139221 181.035065,153.334351 
	C181.057281,147.258514 184.301956,143.770309 190.655762,143.570496 
	C199.128860,143.304047 207.615158,143.457092 216.546692,143.291458 
	C231.363632,143.246841 245.729660,143.340744 260.546295,143.295227 
	C275.907593,143.155792 290.818237,143.155792 305.728912,143.155792 
	C305.924500,142.812698 306.120087,142.469620 306.315674,142.126526 
	C303.925476,140.443680 301.535278,138.760818 299.241394,137.145782 
	C304.080933,134.627029 309.559601,131.529266 315.666718,134.154129 
	C318.438934,135.345642 320.557709,138.219864 322.751678,140.539948 
	C324.338684,142.218155 325.561249,144.241013 327.356720,145.795349 
	C328.809082,132.408401 321.315491,125.633606 308.884674,128.732437 
	C303.146484,130.162888 297.687653,132.718079 292.109772,134.783936 
	C290.935608,135.218796 289.794891,135.743958 287.998779,135.310486 
	C291.635803,132.105408 295.272827,128.900330 299.072876,125.393707 
	C306.935974,118.540825 316.249512,115.220947 325.893707,111.771278 
M206.935333,233.973038 
	C219.291046,233.924301 231.646759,233.875549 244.925766,233.973541 
	C249.082687,233.978912 253.248871,234.143845 257.391479,233.902985 
	C258.837494,233.818878 260.646057,233.105667 261.577667,232.051239 
	C281.233032,209.804962 296.793976,185.117569 305.961243,156.689056 
	C306.599640,154.709335 306.873749,152.612137 307.354126,150.399765 
	C285.870728,150.399765 264.939667,150.399765 243.088715,150.203476 
	C231.065567,150.265396 219.042404,150.327316 206.107269,150.188416 
	C202.274689,150.190094 198.431137,150.010239 194.612396,150.241028 
	C190.188110,150.508423 187.394623,152.880447 187.383743,157.526367 
	C187.329880,180.523590 187.292389,203.521469 187.426636,226.518066 
	C187.454758,231.335922 190.206314,233.800323 195.023560,233.965027 
	C198.679337,234.090042 202.346207,233.890030 206.935333,233.973038 
M280.500000,272.993835 
	C296.637177,272.996246 312.774414,273.023285 328.911499,272.986481 
	C333.932037,272.975037 335.514221,270.340942 332.950073,266.020905 
	C329.052551,259.454498 325.159912,252.858566 320.754150,246.637100 
	C319.483673,244.843048 316.477875,243.366760 314.235199,243.320587 
	C299.993805,243.027374 285.743103,243.139343 271.496185,243.231323 
	C269.954376,243.241272 268.007141,243.512543 266.941315,244.450470 
	C256.278595,253.833603 245.761261,263.381989 235.080826,272.993683 
	C249.727295,272.993683 264.613647,272.993683 280.500000,272.993835 
M198.499542,272.996277 
	C200.329514,272.996582 202.196152,272.760193 203.983292,273.037018 
	C213.044250,274.440552 220.316559,271.305847 226.903915,265.147919 
	C234.596451,257.956848 242.758942,251.268524 250.717514,244.362091 
	C231.828354,243.178299 213.604324,243.114334 195.382751,243.296417 
	C193.880646,243.311432 191.865387,244.645325 190.991043,245.964554 
	C186.498535,252.742935 182.175797,259.643127 178.050934,266.652161 
	C175.804794,270.468842 177.452728,272.911255 182.029083,272.976776 
	C187.185211,273.050629 192.343216,272.995270 198.499542,272.996277 
M323.953430,164.292557 
	C323.792145,160.656815 323.630890,157.021072 323.469604,153.385330 
	C322.981750,153.319290 322.493896,153.253250 322.006042,153.187210 
	C313.517517,183.609695 297.070465,209.575668 276.368958,234.003174 
	C280.130402,234.003174 282.793427,233.748810 285.387756,234.062424 
	C289.338684,234.540039 291.753113,233.096451 293.682281,229.590652 
	C300.472290,217.251373 308.106537,205.339172 314.259369,192.699722 
	C318.486298,184.016663 320.789948,174.397354 323.953430,164.292557 
M167.923706,281.154999 
	C162.706665,280.068176 161.392975,277.013153 164.356430,272.154236 
	C170.066910,262.791229 175.958084,253.538574 181.712296,244.201904 
	C182.458237,242.991547 183.479019,241.444595 183.273148,240.241669 
	C182.407303,235.182114 181.124054,230.193985 179.972961,225.088211 
	C171.498627,235.819199 165.298981,248.170883 161.447723,261.599609 
	C159.868927,267.104614 159.217651,273.012238 159.089767,278.757721 
	C158.966125,284.312866 162.051529,286.788177 167.595566,286.991699 
	C169.901810,287.076355 172.213745,287.005768 175.561325,287.005768 
	C172.670120,285.553375 170.925339,284.676880 169.180573,283.800415 
	C169.304092,283.282684 169.427628,282.764984 169.551163,282.247253 
	C179.650467,282.247253 189.749771,282.247253 199.849075,282.247253 
	C199.826767,281.883453 199.804459,281.519623 199.782150,281.155823 
	C189.470535,281.155823 179.158936,281.155823 167.923706,281.154999 
M310.089722,213.584427 
	C304.773987,220.241516 299.458252,226.898590 293.789551,233.997681 
	C301.663330,233.997681 308.807922,234.085419 315.949097,233.967255 
	C320.813477,233.886749 323.792236,231.348022 323.869751,226.836060 
	C324.051636,216.250137 323.927979,205.658966 323.927979,193.982452 
	C319.037537,200.933060 314.784637,206.977585 310.089722,213.584427 
z"/>
<path fill="#86ECFA" opacity="1.000000" stroke="none" 
	d="
M169.720062,305.991241 
	C170.618744,305.323975 171.501373,304.105560 172.418747,304.078827 
	C178.388885,303.904724 184.366592,303.989410 190.673706,303.989410 
	C190.673706,306.122467 190.673706,308.022369 190.673706,310.727997 
	C186.806396,310.727997 182.800705,310.727997 178.794998,310.727997 
	C178.718597,311.454468 178.642181,312.180908 178.565781,312.907379 
	C181.914200,313.316559 185.262619,313.725769 189.053558,314.189026 
	C189.053558,315.813904 189.053558,317.673615 189.053558,320.062866 
	C185.603180,320.062866 182.183319,320.062866 177.449814,320.062866 
	C181.741409,325.726562 187.155029,321.585327 191.176575,324.070801 
	C191.176575,325.701172 191.176575,327.607086 191.176575,329.742828 
	C184.100571,329.742828 177.169815,329.742828 169.978790,329.375671 
	C169.771835,323.642487 169.825165,318.276428 169.798325,312.199158 
	C169.473694,311.253510 169.229218,311.019104 168.995392,310.646149 
	C169.006042,310.507629 169.027893,310.230652 169.237030,309.921631 
	C169.537445,308.405457 169.628754,307.198364 169.720062,305.991241 
z"/>
<path fill="#88ECFA" opacity="1.000000" stroke="none" 
	d="
M169.027893,310.230652 
	C169.027893,310.230652 169.006042,310.507629 168.905579,310.916870 
	C168.739807,311.504822 168.674469,311.683472 168.609146,311.862152 
	C167.171463,312.020935 165.723755,312.373322 164.298126,312.299500 
	C161.019409,312.129700 159.989288,313.885101 160.004288,316.787781 
	C160.026352,321.059143 160.009995,325.330750 160.009995,329.798279 
	C156.964844,329.798279 154.376831,329.798279 151.120865,329.798279 
	C151.120865,325.129333 151.120865,320.544006 151.091507,315.078339 
	C151.419220,308.592468 146.156479,312.313629 144.194626,309.886505 
	C144.058212,308.785278 143.880508,307.350677 143.702805,305.916077 
	C144.950897,305.275391 146.182816,304.120911 147.449814,304.081024 
	C153.651184,303.885803 159.861923,303.987518 166.536850,303.944153 
	C167.257172,304.417511 167.509979,304.930969 167.764587,306.111023 
	C168.186890,307.928619 168.607391,309.079651 169.027893,310.230652 
z"/>
<path fill="#F0F3F4" opacity="1.000000" stroke="none" 
	d="
M143.386749,305.587524 
	C143.880508,307.350677 144.058212,308.785278 144.194626,309.886505 
	C146.156479,312.313629 151.419220,308.592468 151.010437,314.620239 
	C138.323120,314.997192 136.521103,313.134888 137.239166,300.210052 
	C137.464035,296.162842 138.233063,292.145844 138.735275,288.252533 
	C140.204834,294.017181 141.637756,299.638062 143.386749,305.587524 
z"/>
<path fill="#0B2733" opacity="1.000000" stroke="none" 
	d="
M168.874908,311.896820 
	C168.674469,311.683472 168.739807,311.504822 168.894943,311.055420 
	C169.229218,311.019104 169.473694,311.253510 169.695557,311.741516 
	C169.495529,311.973846 169.318100,311.952667 168.874908,311.896820 
z"/>
<path fill="#F5F6F7" opacity="1.000000" stroke="none" 
	d="
M335.465149,330.107086 
	C334.009216,329.310883 332.185577,328.470367 332.155426,327.569794 
	C331.918335,320.495697 331.957764,313.408630 332.117462,306.330139 
	C332.135529,305.529907 333.427673,304.758423 334.565552,303.897888 
	C340.447723,303.822144 345.893433,303.822144 351.572754,303.822144 
	C351.572754,305.737213 351.572754,307.108185 351.572754,308.866028 
	C347.085602,308.866028 342.829010,308.866028 338.320709,308.866028 
	C338.320709,310.806641 338.320709,312.363190 338.320709,314.276855 
	C342.027954,314.276855 345.618988,314.276855 349.623627,314.276855 
	C349.822205,315.917297 349.984863,317.260864 350.202759,319.061096 
	C346.077881,319.061096 342.327972,319.061096 338.320862,319.061096 
	C338.320862,321.190552 338.320862,322.909088 338.320862,325.051758 
	C342.819183,325.051758 347.235687,325.051758 351.882629,325.051758 
	C351.882629,326.855255 351.882629,328.240601 351.882629,330.034973 
	C346.489655,330.034973 341.208984,330.034973 335.465149,330.107086 
z"/>
<path fill="#2F3F4C" opacity="1.000000" stroke="none" 
	d="
M254.036346,282.611511 
	C242.331894,282.865662 230.629761,282.865662 218.927628,282.865662 
	C230.258987,280.339081 241.734604,281.407898 253.611496,281.233185 
	C254.061218,281.684570 254.049942,282.020996 254.036346,282.611511 
z"/>
<path fill="#84E9F7" opacity="1.000000" stroke="none" 
	d="
M215.008209,320.788818 
	C216.529114,322.260925 218.050018,323.733063 219.970520,325.591980 
	C218.320877,326.852570 216.842026,327.982666 215.102631,329.330811 
	C212.879776,329.907837 210.929092,330.481323 208.953094,330.588593 
	C200.349594,331.055634 193.867752,325.106964 193.904282,316.921570 
	C193.940628,308.780060 200.539566,302.897614 209.136765,303.437592 
	C210.785095,303.541138 212.411087,304.000305 214.435059,304.399597 
	C216.498947,305.736877 218.175140,306.969971 220.067596,308.362152 
	C218.319916,310.023987 216.908661,311.365906 214.872437,312.883667 
	C213.565933,312.590210 212.857086,311.686401 212.207642,311.727264 
	C209.484406,311.898529 205.331512,311.449310 204.413818,312.919708 
	C203.110046,315.008636 203.198761,319.266266 204.590515,321.295349 
	C205.569641,322.722839 209.705688,322.111542 212.434708,322.137421 
	C213.288208,322.145477 214.150131,321.263428 215.008209,320.788818 
z"/>
<path fill="#0C2C37" opacity="1.000000" stroke="none" 
	d="
M169.237030,309.921631 
	C168.607391,309.079651 168.186890,307.928619 167.871338,306.389069 
	C168.363785,305.997681 168.751282,305.994873 169.429413,305.991638 
	C169.628754,307.198364 169.537445,308.405457 169.237030,309.921631 
z"/>
<path fill="#0A1F2E" opacity="1.000000" stroke="none" 
	d="
M242.000488,287.528900 
	C251.027512,287.000366 260.054291,286.934875 269.540833,286.967041 
	C269.991516,292.442200 269.982422,297.819702 269.510498,303.614899 
	C267.123749,304.032593 265.199860,304.032593 262.978699,304.032593 
	C262.978699,307.582245 262.978699,310.668121 262.978699,313.956879 
	C259.273499,313.956879 255.875381,313.956879 251.979187,313.956879 
	C251.979187,310.578735 251.979187,307.348846 251.979187,304.150726 
	C249.668716,304.150726 247.854858,304.150726 245.641083,304.078003 
	C244.161469,303.944855 243.081741,303.884430 242.002014,303.824036 
	C242.001419,298.546661 242.000839,293.269318 242.000488,287.528900 
z"/>
<path fill="#FBFBFC" opacity="1.000000" stroke="none" 
	d="
M246.040985,304.150726 
	C247.854858,304.150726 249.668716,304.150726 251.979187,304.150726 
	C251.979187,307.348846 251.979187,310.578735 251.979187,313.956879 
	C255.875381,313.956879 259.273499,313.956879 262.978699,313.956879 
	C262.978699,310.668121 262.978699,307.582245 262.978699,304.032593 
	C265.199860,304.032593 267.123749,304.032593 269.494110,304.091553 
	C269.946350,312.411774 269.952179,320.673035 269.949463,329.393433 
	C268.125275,329.852600 266.309601,329.852600 264.020508,329.852600 
	C264.020508,326.493622 264.020508,323.083405 264.020508,319.475647 
	C259.946838,319.475647 256.344147,319.475647 252.228027,319.475647 
	C252.228027,322.842957 252.228027,326.216309 252.228027,329.991943 
	C250.124573,329.991943 248.524933,329.991943 246.466339,329.462494 
	C246.018585,320.672272 246.029785,312.411499 246.040985,304.150726 
z"/>
<path fill="#F7F8F8" opacity="1.000000" stroke="none" 
	d="
M300.547699,326.839844 
	C301.017242,327.806610 301.209625,328.556122 301.284851,329.676331 
	C297.891724,330.063538 294.768311,330.556641 293.564270,325.889618 
	C292.872253,323.207245 281.808136,323.851257 280.299866,326.396332 
	C278.020538,330.242493 278.020538,330.242493 272.864685,329.545715 
	C276.660706,321.024994 280.420624,312.585266 284.093933,304.339996 
	C288.699005,302.993683 290.917206,304.739685 292.459961,308.892242 
	C294.705078,314.935486 297.633514,320.724884 300.547699,326.839844 
M286.279419,311.897156 
	C285.300934,314.446106 284.322418,316.995026 283.312714,319.625305 
	C286.146942,319.625305 288.479218,319.625305 291.722534,319.625305 
	C289.815613,316.410065 288.302673,313.859131 286.279419,311.897156 
z"/>
<path fill="#F4F5F6" opacity="1.000000" stroke="none" 
	d="
M302.608246,303.953186 
	C306.659058,303.380768 308.565765,305.031952 309.743500,308.532867 
	C311.262970,313.049530 313.401581,317.357910 315.529816,322.358002 
	C317.777588,317.269409 320.069946,312.848724 321.682770,308.192657 
	C323.044159,304.262360 325.173279,303.025757 329.348206,304.521149 
	C325.910889,312.458862 322.594635,320.373383 319.044556,328.181580 
	C317.731384,331.069794 312.624969,330.873749 311.226837,327.887024 
	C309.308838,323.789703 307.722717,319.536987 305.811005,315.059998 
	C304.490173,311.207886 303.352692,307.646667 302.608246,303.953186 
z"/>
<path fill="#85EAF8" opacity="1.000000" stroke="none" 
	d="
M245.641083,304.078003 
	C246.029785,312.411499 246.018585,320.672272 246.023056,329.391907 
	C244.959976,329.913239 243.881210,329.975677 242.402161,330.107788 
	C241.042038,329.235199 239.526779,328.432251 239.247681,327.319336 
	C238.786331,325.479645 239.122314,323.440002 239.122314,321.252380 
	C236.321884,321.252380 233.914383,321.252380 231.051544,321.252380 
	C231.051544,324.111115 231.051544,326.851654 231.051544,329.792664 
	C228.017334,329.792664 225.432510,329.792664 222.546585,329.792664 
	C222.546585,321.289948 222.546585,312.906860 222.546585,304.253601 
	C225.280457,304.253601 227.861084,304.253601 230.912384,304.253601 
	C230.912384,306.958893 230.912384,309.691925 230.912384,312.770447 
	C233.742538,312.770447 236.127258,312.770447 237.998291,312.770447 
	C239.085220,309.745209 240.121750,306.860260 241.580139,303.899658 
	C243.081741,303.884430 244.161469,303.944855 245.641083,304.078003 
z"/>
<path fill="#0D2835" opacity="1.000000" stroke="none" 
	d="
M215.008087,320.369293 
	C214.150131,321.263428 213.288208,322.145477 212.434708,322.137421 
	C209.705688,322.111542 205.569641,322.722839 204.590515,321.295349 
	C203.198761,319.266266 203.110046,315.008636 204.413818,312.919708 
	C205.331512,311.449310 209.484406,311.898529 212.207642,311.727264 
	C212.857086,311.686401 213.565933,312.590210 214.628510,313.148224 
	C215.009033,315.474518 215.008499,317.712158 215.008087,320.369293 
z"/>
<path fill="#0A1F2E" opacity="1.000000" stroke="none" 
	d="
M244.008606,150.399765 
	C264.939667,150.399765 285.870728,150.399765 307.354126,150.399765 
	C306.873749,152.612137 306.599640,154.709335 305.961243,156.689056 
	C296.793976,185.117569 281.233032,209.804962 261.577667,232.051239 
	C260.646057,233.105667 258.837494,233.818878 257.391479,233.902985 
	C253.248871,234.143845 249.082687,233.978912 244.463409,233.442535 
	C244.003571,205.407608 244.006088,177.903687 244.008606,150.399765 
z"/>
<path fill="#0A2330" opacity="1.000000" stroke="none" 
	d="
M243.548660,150.301620 
	C244.006088,177.903687 244.003571,205.407608 244.001770,233.369171 
	C231.646759,233.875549 219.291046,233.924301 206.539795,233.501709 
	C206.428070,230.744125 206.952774,228.458542 206.958801,226.171570 
	C207.025391,200.910919 207.011414,175.650040 207.019257,150.389236 
	C219.042404,150.327316 231.065567,150.265396 243.548660,150.301620 
z"/>
<path fill="#0C1E2D" opacity="1.000000" stroke="none" 
	d="
M280.000000,272.993774 
	C264.613647,272.993683 249.727295,272.993683 235.080826,272.993683 
	C245.761261,263.381989 256.278595,253.833603 266.941315,244.450470 
	C268.007141,243.512543 269.954376,243.241272 271.496185,243.231323 
	C285.743103,243.139343 299.993805,243.027374 314.235199,243.320587 
	C316.477875,243.366760 319.483673,244.843048 320.754150,246.637100 
	C325.159912,252.858566 329.052551,259.454498 332.950073,266.020905 
	C335.514221,270.340942 333.932037,272.975037 328.911499,272.986481 
	C312.774414,273.023285 296.637177,272.996246 280.000000,272.993774 
z"/>
<path fill="#122C39" opacity="1.000000" stroke="none" 
	d="
M206.563263,150.288818 
	C207.011414,175.650040 207.025391,200.910919 206.958801,226.171570 
	C206.952774,228.458542 206.428070,230.744125 206.076202,233.432495 
	C202.346207,233.890030 198.679337,234.090042 195.023560,233.965027 
	C190.206314,233.800323 187.454758,231.335922 187.426636,226.518066 
	C187.292389,203.521469 187.329880,180.523590 187.383743,157.526367 
	C187.394623,152.880447 190.188110,150.508423 194.612396,150.241028 
	C198.431137,150.010239 202.274689,150.190094 206.563263,150.288818 
z"/>
<path fill="#0F2835" opacity="1.000000" stroke="none" 
	d="
M197.999969,272.996216 
	C192.343216,272.995270 187.185211,273.050629 182.029083,272.976776 
	C177.452728,272.911255 175.804794,270.468842 178.050934,266.652161 
	C182.175797,259.643127 186.498535,252.742935 190.991043,245.964554 
	C191.865387,244.645325 193.880646,243.311432 195.382751,243.296417 
	C213.604324,243.114334 231.828354,243.178299 250.717514,244.362091 
	C242.758942,251.268524 234.596451,257.956848 226.903915,265.147919 
	C220.316559,271.305847 213.044250,274.440552 203.983292,273.037018 
	C202.196152,272.760193 200.329514,272.996582 197.999969,272.996216 
z"/>
<path fill="#112131" opacity="1.000000" stroke="none" 
	d="
M323.953369,164.744537 
	C320.789948,174.397354 318.486298,184.016663 314.259369,192.699722 
	C308.106537,205.339172 300.472290,217.251373 293.682281,229.590652 
	C291.753113,233.096451 289.338684,234.540039 285.387756,234.062424 
	C282.793427,233.748810 280.130402,234.003174 276.368958,234.003174 
	C297.070465,209.575668 313.517517,183.609695 322.006042,153.187210 
	C322.493896,153.253250 322.981750,153.319290 323.469604,153.385330 
	C323.630890,157.021072 323.792145,160.656815 323.953369,164.744537 
z"/>
<path fill="#15323D" opacity="1.000000" stroke="none" 
	d="
M168.385513,281.155396 
	C179.158936,281.155823 189.470535,281.155823 199.782150,281.155823 
	C199.804459,281.519623 199.826767,281.883453 199.849075,282.247253 
	C189.749771,282.247253 179.650467,282.247253 169.551163,282.247253 
	C169.427628,282.764984 169.304092,283.282684 169.180573,283.800415 
	C170.925339,284.676880 172.670120,285.553375 175.561325,287.005768 
	C172.213745,287.005768 169.901810,287.076355 167.595566,286.991699 
	C162.051529,286.788177 158.966125,284.312866 159.089767,278.757721 
	C159.217651,273.012238 159.868927,267.104614 161.447723,261.599609 
	C165.298981,248.170883 171.498627,235.819199 179.972961,225.088211 
	C181.124054,230.193985 182.407303,235.182114 183.273148,240.241669 
	C183.479019,241.444595 182.458237,242.991547 181.712296,244.201904 
	C175.958084,253.538574 170.066910,262.791229 164.356430,272.154236 
	C161.392975,277.013153 162.706665,280.068176 168.385513,281.155396 
z"/>
<path fill="#0D1D2D" opacity="1.000000" stroke="none" 
	d="
M310.310730,213.303253 
	C314.784637,206.977585 319.037537,200.933060 323.927979,193.982452 
	C323.927979,205.658966 324.051636,216.250137 323.869751,226.836060 
	C323.792236,231.348022 320.813477,233.886749 315.949097,233.967255 
	C308.807922,234.085419 301.663330,233.997681 293.789551,233.997681 
	C299.458252,226.898590 304.773987,220.241516 310.310730,213.303253 
z"/>
<path fill="#213140" opacity="1.000000" stroke="none" 
	d="
M286.534576,311.602661 
	C288.302673,313.859131 289.815613,316.410065 291.722534,319.625305 
	C288.479218,319.625305 286.146942,319.625305 283.312714,319.625305 
	C284.322418,316.995026 285.300934,314.446106 286.534576,311.602661 
z"/>
</svg>